HIERARCHY
ROOT Hips
{
	OFFSET 0.000000 88.474243 0.000000
	CHANNELS 6 Xposition Yposition Zposition Zrotation Yrotation Xrotation 
	JOINT Hips_Spine
	{
		OFFSET 0.000000 0.000000 0.000000
		CHANNELS 3 Zrotation Yrotation Xrotation
		JOINT Spine
		{
			OFFSET 0.005100 8.711998 -0.691000
			CHANNELS 3 Zrotation Yrotation Xrotation
			JOINT Spine1
			{
				OFFSET -0.009200 8.660301 -1.275000
				CHANNELS 3 Zrotation Yrotation Xrotation
				JOINT Spine2
				{
					OFFSET 0.006300 9.852501 -1.857000
					CHANNELS 3 Zrotation Yrotation Xrotation
					JOINT Spine2_Neck
					{
						OFFSET 0.000000 0.000000 0.000000
						CHANNELS 3 Zrotation Yrotation Xrotation
						JOINT Neck
						{
							OFFSET 0.016300 11.420799 -0.263300
							CHANNELS 3 Zrotation Yrotation Xrotation
							End Site #name: Head
							{
								OFFSET -0.019200 9.262405 2.362500
							}
						}
					}
					JOINT Spine2_LeftShoulder
					{
						OFFSET 0.000000 0.000000 0.000000
						CHANNELS 3 Zrotation Yrotation Xrotation
						JOINT LeftShoulder
						{
							OFFSET 5.616900 6.732201 -0.345700
							CHANNELS 3 Zrotation Yrotation Xrotation
							JOINT LeftArm
							{
								OFFSET 10.664888 -0.183372 -2.440700
								CHANNELS 3 Zrotation Yrotation Xrotation
								JOINT LeftForeArm
								{
									OFFSET 27.459126 0.000000 0.000000
									CHANNELS 3 Zrotation Yrotation Xrotation
									End Site #name: LeftHand
									{
										OFFSET 21.306858 0.000000 0.000000
									}
								}
							}
						}
					}
					JOINT Spine2_RightShoulder
					{
						OFFSET 0.000000 0.000000 0.000000
						CHANNELS 3 Zrotation Yrotation Xrotation
						JOINT RightShoulder
						{
							OFFSET -5.580300 6.737503 -0.344400
							CHANNELS 3 Zrotation Yrotation Xrotation
							JOINT RightArm
							{
								OFFSET -10.679335 -0.188484 -2.383900
								CHANNELS 3 Zrotation Yrotation Xrotation
								JOINT RightForeArm
								{
									OFFSET -27.503529 0.000000 0.000000
									CHANNELS 3 Zrotation Yrotation Xrotation
									End Site #name: RightHand
									{
										OFFSET -21.306808 0.000000 0.000000
									}
								}
							}
						}
					}
				}
			}
		}
	}
	JOINT Hips_LeftUpLeg
	{
		OFFSET 0.000000 0.000000 0.000000
		CHANNELS 3 Zrotation Yrotation Xrotation
		JOINT LeftUpLeg
		{
			OFFSET 6.857700 -6.739601 0.312100
			CHANNELS 3 Zrotation Yrotation Xrotation
			JOINT LeftLeg
			{
				OFFSET -0.367590 -34.731552 -4.572400
				CHANNELS 3 Zrotation Yrotation Xrotation
				End Site #name: LeftFoot
				{
					OFFSET 0.367590 -34.656704 -6.067400
				}
			}
		}
	}
	JOINT Hips_RightUpLeg
	{
		OFFSET 0.000000 0.000000 0.000000
		CHANNELS 3 Zrotation Yrotation Xrotation
		JOINT RightUpLeg
		{
			OFFSET -6.876100 -6.733299 0.301000
			CHANNELS 3 Zrotation Yrotation Xrotation
			JOINT RightLeg
			{
				OFFSET 0.347353 -34.795158 -4.515900
				CHANNELS 3 Zrotation Yrotation Xrotation
				End Site #name: RightFoot
				{
					OFFSET -0.347353 -34.589367 -6.070300
				}
			}
		}
	}
}
MOTION
Frames: 6
Frame Time: 0.041667
0.036271 -0.024016 -0.075050 -176.564162 58.423904 -173.267358 -0.000000 -0.000000 0.000000 -3.735247 3.128752 -1.611098 1.249750 -0.300827 0.849977 0.000000 0.000000 0.000000 0.928911 -1.041574 -2.224100 -1.778686 -7.563934 -1.115522 0.753662 -0.122695 -0.789357 -3.410883 -7.284628 1.432459 -78.042710 -8.899528 10.197069 0.660704 -17.140448 2.806101 0.525375 -0.626819 -0.750453 18.704413 13.068570 4.300810 51.284450 11.563238 -10.585647 -7.480154 75.029252 -1.519579 0.000000 -0.000000 0.000000 -7.430682 19.337094 -15.062165 -5.973851 -33.735665 -0.192590 -0.000000 -0.000000 -0.000000 -9.308885 -30.257757 -6.747104 -15.541049 -10.971262 15.239935 
-0.120561 -0.190026 -0.104095 -179.165859 66.294951 -174.211271 -0.000000 -0.000000 0.000000 -5.477667 2.961092 1.172413 1.604050 -0.575831 0.170984 0.000000 0.000000 0.000000 1.536978 -0.681561 -2.036855 -0.517342 -14.438492 -0.576073 1.008754 -0.319855 -1.471399 -2.294943 -8.781229 1.652943 -83.879925 -15.735597 6.402722 -1.167597 -13.495334 1.469793 1.471261 -0.971535 0.182213 24.334742 15.972866 4.761064 50.614380 10.328409 -10.728012 -5.923930 62.313620 -0.781454 -0.000000 -0.000000 -0.000000 -5.716173 19.952088 -12.758958 -3.211812 -31.302094 -5.530714 -0.000000 -0.000000 -0.000000 -9.748808 -34.120322 -5.601323 -13.597587 -7.857824 14.458886 
-0.079990 -0.243442 -0.113501 178.931575 57.070676 -175.855217 -0.000000 -0.000000 0.000000 -6.290912 -0.449075 1.501249 1.966045 -0.745451 -0.227980 0.000000 0.000000 0.000000 2.098774 -0.870877 -2.098725 -0.845161 -23.409940 -0.403778 1.112781 -0.336152 -1.880059 -1.039466 -7.839805 0.982899 -85.426557 -16.926367 1.502275 -0.903676 -7.803881 1.729142 1.899423 -1.128584 -0.994530 25.889737 18.176906 5.698300 51.549644 9.881362 -6.062248 -4.369383 60.596277 1.750617 -0.000000 0.000000 -0.000000 -4.478363 21.145988 -11.266610 -2.292680 -30.588118 -7.345358 -0.000000 -0.000000 -0.000000 -10.263757 -38.364621 -3.524454 -13.530616 -8.465928 15.067055 
0.057083 -0.287850 -0.136676 179.313592 47.022219 -176.217348 -0.000000 -0.000000 0.000000 -6.229762 -1.866560 2.284439 1.648921 -1.023782 -0.484768 0.000000 0.000000 0.000000 2.071510 -1.189356 -1.792706 -1.654975 -28.375674 -0.432888 0.981708 -0.573856 -2.050988 -0.731970 -6.816451 0.585122 -86.206045 -18.150111 -0.297204 -0.608864 -5.260424 1.421128 1.667859 -1.606417 -1.004453 24.716946 17.947840 5.765356 52.038792 11.135781 -3.319535 -4.075670 60.245848 1.877321 -0.000000 0.000000 -0.000000 -3.650891 21.935228 -10.037666 -1.770948 -31.167311 -8.338354 -0.000000 -0.000000 -0.000000 -10.780400 -44.414067 -2.526382 -13.620399 -7.990484 15.771826 
0.202478 -0.318014 -0.199225 178.764283 38.292708 -176.923179 -0.000000 -0.000000 0.000000 -5.533302 -2.294414 2.663518 1.146043 -1.251261 -0.478691 0.000000 0.000000 0.000000 1.842193 -1.458918 -1.196717 -1.554236 -30.528466 -0.662043 0.656141 -0.835885 -1.930579 -0.943881 -5.750803 0.343296 -86.500904 -18.982064 -0.043315 -0.400104 -4.144383 1.362859 1.154767 -1.965346 -0.423708 22.406961 16.705024 5.425568 52.426359 12.534424 -0.366292 -3.798983 59.397849 1.559843 -0.000000 0.000000 -0.000000 -3.478917 22.288858 -9.639335 -1.509560 -31.594493 -8.843126 -0.000000 -0.000000 -0.000000 -11.079123 -49.924116 -2.118102 -14.132912 -7.215075 16.664432 
0.360944 -0.328662 -0.284788 177.674692 30.507194 -177.568183 -0.000000 -0.000000 0.000000 -4.646321 -2.077438 2.879779 0.668439 -1.437102 -0.113058 0.000000 0.000000 0.000000 1.514057 -1.597298 -0.332970 -0.635809 -30.850820 -1.418893 0.315097 -1.030510 -1.545202 -1.369259 -4.664546 0.205417 -86.632382 -19.094485 1.065978 0.295974 -3.972891 1.913190 0.773304 -2.071034 -0.164392 20.255906 15.362783 5.082446 52.910560 12.502391 2.502977 -3.808878 58.257952 1.265837 -0.000000 0.000000 -0.000000 -3.612622 22.186093 -9.784188 -1.460321 -31.917140 -9.009315 -0.000000 -0.000000 -0.000000 -10.967921 -54.007461 -2.421072 -14.579772 -6.765921 17.339143 
